<svg version="1.1" id="Layer_1" xmlns="http://www.w3.org/2000/svg" xmlns:xlink="http://www.w3.org/1999/xlink" x="0px" y="0px"
	 width="100%" viewBox="0 0 1024 1024" enable-background="new 0 0 1024 1024" xml:space="preserve">
<path fill="#000000" opacity="1.000000" stroke="none" 
	d="
M528.937561,55.055820 
	C525.783203,61.265671 531.112854,69.758232 538.252625,69.393829 
	C537.751343,71.894745 536.919556,73.811890 534.037109,72.258957 
	C531.929077,71.123268 530.621826,71.839890 529.254944,73.305023 
	C528.807312,73.784790 528.283875,74.336891 527.692139,74.516312 
	C523.337708,75.836494 520.341797,78.339592 517.814392,82.381577 
	C515.318176,86.373695 508.670502,86.211121 504.747314,83.138687 
	C501.250305,80.399979 500.566925,74.667015 503.479248,70.512199 
	C504.550629,68.983765 505.941193,67.887733 504.778748,65.731026 
	C503.604828,63.553055 503.113312,61.073700 505.651337,59.550144 
	C508.314941,57.951195 510.400879,59.354370 511.974670,61.658154 
	C512.350159,62.207836 512.660767,62.801857 513.310242,63.896320 
	C517.164307,58.464664 522.741943,56.496624 526.859497,52.033199 
	C530.876587,47.678658 536.172546,43.248032 541.378662,40.247910 
	C545.553894,37.841808 546.501221,33.603546 550.104492,31.624172 
	C548.115417,24.807516 551.428894,19.828117 558.863342,20.067022 
	C563.397461,20.212725 566.046631,18.795696 568.220581,15.414539 
	C569.361328,13.640389 571.287354,12.978678 573.277405,11.825188 
	C571.184387,8.530263 569.313416,5.319937 571.918579,1.341026 
	C573.388916,1.000000 574.777771,1.000000 576.694458,1.308520 
	C580.230957,4.976812 588.086609,4.597458 590.000000,1.000000 
	C590.444458,1.000000 590.888916,1.000000 591.593689,1.256911 
	C591.023010,3.722203 591.986755,5.281301 593.614685,6.689137 
	C598.384521,10.814119 602.864075,8.587414 605.000000,1.000000 
	C605.444458,1.000000 605.888916,1.000000 606.666687,1.000000 
	C608.401123,7.201948 603.358948,9.278471 600.105225,12.983196 
	C595.137085,18.639936 591.379272,14.560728 587.280212,12.420513 
	C586.596252,14.235883 587.644104,14.742990 588.265442,15.432229 
	C591.348450,18.852228 591.011841,21.508799 587.023254,23.720909 
	C583.151550,25.868166 580.626160,28.514486 581.309021,33.470299 
	C581.657288,35.998306 580.020386,38.799671 577.304016,37.688644 
	C573.990417,36.333328 571.163452,38.176285 568.222229,37.485641 
	C563.540222,47.318417 552.918579,49.727554 546.801880,57.558456 
	C546.345459,57.020050 545.889038,56.481644 545.432617,55.943237 
	C546.611938,55.074268 547.891357,54.311501 548.949829,53.314224 
	C551.162537,51.229393 551.383240,48.634483 550.259094,45.963154 
	C549.203125,43.453983 547.337585,42.072929 544.436157,42.086048 
	C541.465698,42.099476 539.180542,43.677582 538.967529,46.223240 
	C538.575562,50.906975 536.284241,52.464111 531.999817,52.345325 
	C530.780762,52.311527 529.824890,53.101871 529.145691,54.638611 
	C528.988647,55.002331 528.937561,55.055820 528.937561,55.055820 
M521.380127,73.053520 
	C522.458923,73.173775 523.416992,73.124062 523.373291,71.523552 
	C522.248718,70.167862 519.783203,71.356689 518.861877,69.165230 
	C518.205383,67.603745 518.447266,65.885574 518.036255,64.177299 
	C516.128601,65.399521 516.866882,67.702492 514.823608,68.752579 
	C512.282166,67.961563 511.103394,64.910309 508.401581,63.725403 
	C510.349976,68.313866 512.292236,72.635986 517.007812,75.045395 
	C517.643616,73.646797 518.817810,72.566452 521.380127,73.053520 
M556.453125,31.909945 
	C556.878479,35.784676 560.018677,37.291080 562.688965,39.217377 
	C561.729919,36.001827 559.822388,33.559097 556.453125,31.909945 
z"/>
<path fill="#000000" opacity="1.000000" stroke="none" 
	d="
M796.562500,1.000000 
	C801.237061,5.932755 806.972534,9.141095 811.577148,13.659693 
	C812.976624,15.032969 815.170532,15.800015 814.072144,18.440659 
	C816.981934,18.789305 819.428589,19.158617 821.888855,19.362183 
	C827.927917,19.861864 829.283447,21.125444 830.111816,27.244654 
	C831.270935,35.807259 829.678040,37.561691 821.020264,37.253845 
	C820.190674,37.224346 819.330627,37.311680 818.537781,37.122391 
	C815.174744,36.319485 810.227539,38.689880 808.725281,34.373238 
	C806.961121,29.304073 806.562439,23.659300 810.378357,19.370609 
	C804.616943,12.238000 796.322021,8.254311 790.152893,1.301790 
	C792.041687,1.000000 794.083313,1.000000 796.562500,1.000000 
z"/>
<path fill="#000000" opacity="1.000000" stroke="none" 
	d="
M1025.000000,207.550018 
	C1022.592102,201.412720 1016.504272,198.302475 1011.423279,194.605759 
	C997.436035,184.429108 984.164429,173.350647 970.371643,162.939301 
	C965.864746,159.537262 961.413696,156.060913 956.894409,152.675537 
	C955.049622,151.293610 953.117554,150.043243 952.557495,147.239349 
	C956.495728,146.049057 958.577148,148.607941 961.003113,150.407379 
	C982.343201,166.236221 1002.578247,183.512024 1024.675659,198.886444 
	C1025.000000,201.700012 1025.000000,204.400024 1025.000000,207.550018 
z"/>
<path fill="#000000" opacity="1.000000" stroke="none" 
	d="
M1.000000,293.416656 
	C3.994393,292.342590 5.637206,289.792023 7.641926,287.919342 
	C20.259567,276.132843 32.694756,264.151245 45.244995,252.292038 
	C46.639042,250.974731 47.871124,248.582794 50.816738,250.381927 
	C49.824444,254.346893 46.379337,256.117462 43.894516,258.519287 
	C31.965981,270.049377 19.883194,281.420074 7.833588,292.824554 
	C5.911066,294.644165 4.189517,296.735474 1.324886,297.898132 
	C1.000000,296.611115 1.000000,295.222198 1.000000,293.416656 
z"/>
<path fill="#000000" opacity="1.000000" stroke="none" 
	d="
M1.000000,189.416656 
	C18.779272,202.147797 36.334141,215.574112 53.934013,230.404373 
	C50.175713,231.886765 48.742130,229.878387 47.228283,228.747284 
	C32.485073,217.731628 17.455042,207.088638 3.360059,195.223633 
	C2.864240,194.806274 2.207530,194.580063 1.312903,194.132385 
	C1.000000,192.611115 1.000000,191.222214 1.000000,189.416656 
z"/>
<path fill="#000000" opacity="1.000000" stroke="none" 
	d="
M1025.000000,850.562500 
	C1013.742493,840.406921 1000.585754,832.189453 988.896851,822.138489 
	C984.417786,818.287109 980.031494,814.327942 975.922119,809.946838 
	C979.080383,810.110596 981.256897,812.087280 983.540466,813.793091 
	C996.145874,823.208679 1008.724548,832.659912 1021.333801,842.070312 
	C1022.250488,842.754456 1023.335999,843.212402 1024.671509,843.887756 
	C1025.000000,846.041687 1025.000000,848.083313 1025.000000,850.562500 
z"/>
<path fill="#000000" opacity="1.000000" stroke="none" 
	d="
M1.000000,832.460632 
	C2.344813,834.803711 4.782692,836.512817 7.141428,838.370605 
	C13.655084,843.500854 20.085379,848.737732 26.506163,853.984375 
	C27.737349,854.990540 29.043726,856.054688 29.442516,858.196411 
	C25.045782,857.809387 22.290436,855.123169 19.312042,852.884033 
	C14.924321,849.585266 10.540159,846.281616 6.167460,842.963013 
	C4.375230,841.602844 2.682320,840.754456 1.198982,843.764038 
	C1.000000,840.307068 1.000000,836.614197 1.000000,832.460632 
z"/>
<path fill="#000000" opacity="1.000000" stroke="none" 
	d="
M292.571533,1.000003 
	C297.642242,4.985470 302.298981,8.954218 306.916748,12.967836 
	C308.109467,14.004511 309.897339,14.652963 309.739502,16.720278 
	C306.570892,18.204073 290.417999,7.531378 286.994141,1.359778 
	C288.714355,1.000000 290.428711,1.000000 292.571533,1.000003 
z"/>
<path fill="#000000" opacity="1.000000" stroke="none" 
	d="
M1025.000000,714.571533 
	C1018.929688,717.166443 1015.766602,722.831482 1011.090515,726.679626 
	C1007.184265,729.894287 1003.608093,733.494690 999.005310,735.879456 
	C1006.263184,725.830200 1015.321167,717.554138 1024.701660,709.150635 
	C1025.000000,710.714355 1025.000000,712.428711 1025.000000,714.571533 
z"/>
<path fill="#000000" opacity="1.000000" stroke="none" 
	d="
M345.562500,1.000000 
	C341.071960,7.966677 333.516571,12.122103 327.839691,19.069000 
	C325.646179,15.362948 327.090302,13.385135 329.084167,11.430659 
	C332.368988,8.210746 335.579376,4.914900 338.910583,1.325532 
	C341.041656,1.000000 343.083344,1.000000 345.562500,1.000000 
z"/>
<path fill="#000000" opacity="1.000000" stroke="none" 
	d="
M849.571533,1.000000 
	C845.311707,7.307892 838.888611,11.756722 832.909973,17.586771 
	C831.143005,13.997783 832.892761,12.058396 834.728210,10.223394 
	C837.657349,7.294999 840.660095,4.440247 843.815857,1.277181 
	C845.714355,1.000000 847.428711,1.000000 849.571533,1.000000 
z"/>
<path fill="#000000" opacity="1.000000" stroke="none" 
	d="
M1025.000000,286.571533 
	C1018.709473,290.185028 1013.969788,295.738922 1006.338074,299.382263 
	C1011.245850,290.967865 1019.131897,287.438873 1024.717407,281.174133 
	C1025.000000,282.714355 1025.000000,284.428711 1025.000000,286.571533 
z"/>
<path fill="#000000" opacity="1.000000" stroke="none" 
	d="
M547.562500,1.000000 
	C549.756287,4.545936 553.289856,6.226881 556.090820,8.671499 
	C557.036438,9.496832 557.856934,10.380339 557.178894,11.603282 
	C556.456848,12.905726 554.981384,12.738720 554.162354,11.987646 
	C550.061890,8.227357 544.347290,6.519496 541.056763,1.342496 
	C543.041687,1.000000 545.083313,1.000000 547.562500,1.000000 
z"/>
<path fill="#000000" opacity="1.000000" stroke="none" 
	d="
M1.000000,404.437500 
	C6.296401,407.951691 11.585900,411.911133 16.623917,417.398956 
	C13.228783,418.012970 11.630245,416.149200 9.698326,415.178070 
	C6.947189,413.795135 5.200000,410.542053 1.285861,410.903625 
	C1.000000,408.958344 1.000000,406.916656 1.000000,404.437500 
z"/>
<path fill="#000000" opacity="1.000000" stroke="none" 
	d="
M1.000000,723.416626 
	C5.182787,722.472534 7.032292,718.042603 12.291882,716.383850 
	C8.742785,721.406860 5.622903,724.946289 1.295536,727.841675 
	C1.000000,726.611084 1.000000,725.222229 1.000000,723.416626 
z"/>
<path fill="#000000" opacity="1.000000" stroke="none" 
	d="
M1025.000000,417.625000 
	C1021.156433,416.444153 1017.712952,414.421753 1015.197937,409.082825 
	C1019.045288,411.387054 1021.743774,413.003235 1024.721191,414.809692 
	C1025.000000,415.750000 1025.000000,416.500000 1025.000000,417.625000 
z"/>
<path fill="#000000" opacity="1.000000" stroke="none" 
	d="
M1025.000000,632.625000 
	C1021.135437,631.696777 1018.463806,628.977966 1015.406311,625.228333 
	C1019.671936,625.718384 1021.315125,629.084778 1024.656860,629.931702 
	C1025.000000,630.750000 1025.000000,631.500000 1025.000000,632.625000 
z"/>
<path fill="#000000" opacity="1.000000" stroke="none" 
	d="
M453.000092,670.323242 
	C426.175934,670.567261 399.892395,669.877563 373.769012,666.320679 
	C354.586182,663.708740 335.627808,660.148865 318.482971,650.437195 
	C305.057465,642.832397 296.412231,632.185181 297.746307,615.806030 
	C298.452911,607.130859 301.801880,599.203735 307.265472,592.549194 
	C315.865234,582.074890 320.718292,570.239014 323.125305,556.985779 
	C325.249634,545.288879 331.224457,535.143738 338.736267,526.075195 
	C345.131989,518.354126 348.975708,509.900848 351.190918,499.983917 
	C358.870361,465.605347 374.519958,435.294220 399.888519,410.419922 
	C421.105957,389.615906 446.308746,375.448456 474.307220,365.981171 
	C492.062317,359.977570 510.245178,356.136444 529.025696,355.732422 
	C564.373230,354.971985 596.704773,365.400452 626.705322,383.321991 
	C677.874695,413.889313 705.961365,459.623932 714.579468,518.140747 
	C716.385803,530.405884 716.460938,542.293091 712.859802,554.135071 
	C712.242859,556.163635 712.533447,557.614624 714.091003,559.033936 
	C715.811401,560.601807 717.401367,562.318787 718.986816,564.027588 
	C734.601440,580.856445 730.263550,603.596130 709.639709,613.797974 
	C702.884644,617.139404 695.558044,617.486084 688.380371,618.791992 
	C654.767700,624.907532 622.054321,634.583557 589.281433,644.012390 
	C568.494629,649.992798 547.767334,656.172974 527.231628,662.973328 
	C508.946045,669.028625 489.944641,669.438293 470.989929,670.175476 
	C465.166870,670.401978 459.330444,670.283386 453.000092,670.323242 
M437.905487,607.530334 
	C466.268982,613.105469 494.879639,615.739258 523.796814,614.820129 
	C531.266541,614.582642 531.527405,614.514954 531.586792,606.794678 
	C531.707214,591.135132 532.953247,575.567810 534.566162,559.995911 
	C537.613892,530.570190 543.489807,501.794037 553.763916,474.025726 
	C564.230164,445.738281 578.606140,419.841248 601.192627,399.201263 
	C604.079590,396.563110 607.092896,394.063232 610.284790,391.293549 
	C609.215088,390.577240 608.710022,390.162231 608.141907,389.869781 
	C590.235107,380.650574 571.395386,374.176514 551.397522,371.617004 
	C546.811707,371.030090 541.939758,369.493958 537.208374,372.018433 
	C503.090912,390.222107 477.925476,416.314850 465.259186,453.443054 
	C460.490814,467.420380 458.318939,481.829132 458.257172,496.592773 
	C458.232452,502.505127 455.751678,505.277069 450.978210,505.323242 
	C446.181763,505.369629 443.761414,502.551849 443.681488,496.683685 
	C443.611176,491.520447 444.008148,486.398834 444.533691,481.244598 
	C448.384277,443.479156 464.420746,411.857971 492.067230,386.020538 
	C496.504669,381.873444 501.162476,377.962067 505.902283,373.779419 
	C503.946960,373.060944 502.532623,373.610535 501.068512,373.892059 
	C490.397644,375.943909 480.148895,379.390198 470.049683,383.300690 
	C440.186279,394.863983 414.737762,412.559509 395.391022,438.292999 
	C369.320770,472.969635 359.496124,512.850281 359.292511,555.495178 
	C359.212128,572.324585 370.330048,586.851807 386.250305,592.768127 
	C402.825012,598.927551 419.815033,603.588806 437.905487,607.530334 
M579.398254,452.807892 
	C571.359985,468.216003 565.342102,484.424255 560.595825,501.101013 
	C554.484070,522.575195 550.757019,544.536804 548.531250,566.707703 
	C547.121094,580.754578 546.026672,594.862183 546.178650,609.029236 
	C546.220276,612.914124 547.402588,613.882080 551.222351,613.251343 
	C559.900635,611.818481 568.696594,611.088318 577.364563,609.604614 
	C609.647644,604.078674 640.844849,594.851440 670.632629,581.168579 
	C686.314453,573.965149 696.052307,561.609619 699.873962,544.807678 
	C702.795044,531.964783 700.255859,519.306335 697.626892,506.764404 
	C688.690491,464.130951 667.635193,429.196533 631.690186,403.844910 
	C625.169189,399.245697 625.109497,399.270569 618.787292,404.104065 
	C601.929688,416.992126 589.550354,433.529755 579.398254,452.807892 
M639.544495,609.184692 
	C597.539795,623.402771 554.295898,630.142273 510.020691,629.952942 
	C493.558838,629.882568 477.100555,628.646423 460.763245,626.299194 
	C432.841156,622.287537 405.320343,616.393921 379.183777,605.664917 
	C358.126648,597.020996 346.618347,580.643494 344.542175,557.764648 
	C344.149902,553.442017 345.383636,549.064514 344.131409,544.171997 
	C340.700653,549.925781 338.295807,555.390442 337.241333,561.343445 
	C334.665558,575.884949 329.330170,589.109741 319.630341,600.477051 
	C316.604950,604.022583 314.601959,608.315063 313.283661,612.853271 
	C310.829834,621.300781 313.086334,628.157349 320.071625,633.636597 
	C329.763885,641.239136 341.157471,644.919739 352.896118,647.609985 
	C380.146576,653.855103 407.921906,654.980652 435.724243,655.658081 
	C452.724365,656.072388 469.704803,655.224854 486.691010,654.716064 
	C498.065094,654.375366 509.261017,652.867432 520.146484,649.584412 
	C578.761047,631.906860 636.878906,612.393616 697.549622,602.414246 
	C705.392029,601.124268 712.875000,593.895142 713.543762,587.592041 
	C714.290222,580.556152 710.120300,575.894531 705.006592,571.108032 
	C699.505676,578.324402 693.814636,584.603394 686.593384,589.197021 
	C672.255188,598.317932 656.096375,603.218018 639.544495,609.184692 
z"/>
<path fill="#000000" opacity="1.000000" stroke="none" 
	d="
M956.975159,130.965042 
	C956.980347,132.631165 957.002808,134.297424 956.987671,135.963364 
	C956.924194,142.960083 955.433289,144.417175 948.625183,144.219437 
	C947.294312,144.180786 945.960144,144.226273 944.628174,144.261520 
	C935.453125,144.504333 931.684143,138.311325 935.922729,129.882721 
	C936.424500,128.884888 937.217285,128.033432 937.727051,127.321152 
	C929.418335,120.742538 921.289795,114.198730 913.043518,107.806778 
	C904.254211,100.993980 895.335205,94.348846 886.505859,87.587479 
	C872.247375,76.668663 858.010193,65.721962 843.776489,54.770889 
	C839.558838,51.525902 835.322754,48.299568 831.220764,44.912479 
	C829.807129,43.745258 827.206787,42.363743 828.893250,40.191399 
	C830.511353,38.107246 832.520569,39.946465 834.072754,41.176323 
	C843.324036,48.506397 852.456909,55.989300 861.808350,63.188786 
	C878.010925,75.662796 894.766785,87.459366 910.469177,100.527084 
	C920.431152,108.817520 931.976562,115.085159 940.828491,124.774406 
	C943.024292,127.177818 946.914551,126.075951 949.772644,127.462181 
	C951.991943,128.538559 954.707458,128.528229 956.750366,130.764938 
	C956.998108,130.995300 956.975159,130.965042 956.975159,130.965042 
z"/>
<path fill="#000000" opacity="1.000000" stroke="none" 
	d="
M535.966675,923.026917 
	C538.995728,922.319580 538.631531,918.750732 540.619446,917.064941 
	C542.542664,918.837585 541.156738,920.318115 540.652588,921.749146 
	C539.664307,924.554565 537.239563,926.675110 538.463684,930.450195 
	C539.168213,932.622925 536.150574,934.365112 533.958008,933.271729 
	C531.156372,931.874695 529.710022,932.957520 527.969177,934.764526 
	C527.207764,935.554871 526.043823,936.294678 524.993347,936.406433 
	C521.767151,936.749939 520.183105,938.493713 518.970276,941.424011 
	C516.793762,946.682922 511.004547,948.320312 505.614349,945.600708 
	C501.191101,943.369080 499.642548,938.044189 502.175690,933.372498 
	C503.656219,930.642090 505.711609,928.385803 502.935608,924.914856 
	C501.328003,922.904846 504.587250,919.848877 507.583740,920.678223 
	C509.440948,921.192261 511.110321,922.384949 513.183472,923.434753 
	C515.901489,921.829773 518.041138,918.727844 521.871033,918.484070 
	C523.595703,918.374390 523.873901,916.415527 524.404358,915.068604 
	C525.926636,911.203613 528.916992,910.214172 534.280457,910.379150 
	C529.205994,913.192505 525.867554,916.272949 526.728271,920.882507 
	C527.463257,924.818481 530.972473,927.278015 534.872375,930.434326 
	C534.298706,927.407227 533.227783,925.064514 535.833923,923.278687 
	C535.997253,923.000488 535.966675,923.026917 535.966675,923.026917 
M518.096802,925.673035 
	C518.160950,925.123291 519.056946,924.672485 518.381470,924.073181 
	C515.385742,925.301025 517.397522,929.171326 515.175903,930.570251 
	C513.033997,930.730225 512.533203,928.207947 510.264893,928.569092 
	C509.312469,933.707153 517.649841,932.032532 516.461548,937.339294 
	C517.402161,934.189636 519.096008,932.954102 522.157227,933.568970 
	C524.682556,934.076233 526.210876,932.690552 527.049194,930.353882 
	C524.685425,933.012634 521.895752,932.676086 519.200562,931.455261 
	C516.814270,930.374329 517.492554,928.176147 518.096802,925.673035 
z"/>
<path fill="#000000" opacity="1.000000" stroke="none" 
	d="
M213.411804,122.414658 
	C211.236725,124.506561 209.334702,126.373375 207.365112,128.165985 
	C206.109558,129.308716 204.513885,130.606873 203.013718,129.069061 
	C201.302841,127.315269 203.248703,126.058418 204.373825,125.000732 
	C217.824005,112.356613 231.404663,99.850014 244.769302,87.116539 
	C259.705597,72.885620 274.457214,58.460804 289.284607,44.115658 
	C291.917114,41.568787 294.502502,38.972721 297.158691,36.451008 
	C298.446442,35.228405 299.636536,33.660995 301.843750,34.229912 
	C303.209229,36.590290 301.713165,38.103828 300.291809,39.455448 
	C290.038513,49.205513 279.695953,58.861820 269.460297,68.630257 
	C257.910980,79.652405 246.453262,90.770462 234.937668,101.828033 
	C227.861328,108.622917 220.751205,115.382629 213.411804,122.414658 
z"/>
<path fill="#000000" opacity="1.000000" stroke="none" 
	d="
M646.516968,956.474854 
	C624.234070,939.564148 602.039856,923.113892 581.947205,904.045166 
	C617.557861,927.593872 650.715088,954.331665 683.418701,981.769470 
	C677.913696,981.926086 674.594788,978.096924 670.919373,975.244080 
	C666.848877,972.084717 662.882202,968.800049 658.676941,965.800842 
	C654.617798,962.905945 650.751831,959.740295 646.516968,956.474854 
z"/>
<path fill="#000000" opacity="1.000000" stroke="none" 
	d="
M108.319290,205.346466 
	C121.515022,191.726990 135.208252,179.130295 148.815201,166.439789 
	C156.577621,159.200180 164.126740,151.731842 171.768906,144.363388 
	C173.036301,143.141388 174.352005,140.880310 176.211624,142.675980 
	C178.342010,144.733124 175.969711,146.137589 174.579163,147.468887 
	C164.878189,156.756439 155.449310,166.396637 145.483627,175.322937 
	C128.306396,190.708633 112.673958,207.774002 94.493538,222.043472 
	C94.423332,222.098572 94.206673,221.967087 93.431557,221.735229 
	C97.911110,215.775513 103.063072,210.746780 108.319290,205.346466 
z"/>
<path fill="#000000" opacity="1.000000" stroke="none" 
	d="
M738.216248,958.216492 
	C756.083313,941.766968 772.332031,924.043640 791.539429,909.620667 
	C788.423767,917.505005 711.606323,989.977173 705.621277,990.132324 
	C716.383606,978.579407 727.296997,968.642822 738.216248,958.216492 
z"/>
<path fill="#000000" opacity="1.000000" stroke="none" 
	d="
M170.058090,112.903473 
	C173.715942,115.810829 177.101471,118.489670 180.453522,121.209747 
	C181.691055,122.213974 183.701691,123.228188 182.193466,125.123283 
	C180.820343,126.848610 179.148224,125.596451 177.817154,124.573738 
	C168.598770,117.490860 159.378891,110.409592 150.201111,103.274261 
	C135.106339,91.538742 120.013847,79.799797 104.993141,67.969933 
	C102.252281,65.811310 98.930931,63.998638 98.423737,59.702900 
	C122.947739,76.397163 146.274597,94.660454 170.058090,112.903473 
z"/>
<path fill="#000000" opacity="1.000000" stroke="none" 
	d="
M326.411987,25.648891 
	C330.118988,32.121544 326.202850,37.699890 318.116760,37.627308 
	C314.485809,37.594715 310.855194,36.767342 307.241425,36.193462 
	C306.479919,36.072529 305.446350,35.669548 305.127930,35.078674 
	C303.114380,31.342297 303.482086,27.264021 304.434082,23.430525 
	C305.188293,20.393311 308.045044,19.286409 311.065094,19.036415 
	C312.059418,18.954105 313.061188,18.966450 314.058319,18.912523 
	C319.400024,18.623632 324.370941,19.024364 326.411987,25.648891 
z"/>
<path fill="#000000" opacity="1.000000" stroke="none" 
	d="
M329.847473,40.817944 
	C351.249146,58.603760 373.567566,74.618935 394.930969,91.850220 
	C397.342651,93.795425 399.908813,95.656593 400.793030,99.473488 
	C397.210938,97.454407 393.333771,95.822403 390.094604,93.353432 
	C369.057648,77.318588 348.158295,61.103111 327.218262,44.941154 
	C325.931641,43.948128 323.912140,43.007504 324.791382,41.100639 
	C325.830750,38.846363 327.833466,39.833763 329.847473,40.817944 
z"/>
<path fill="#000000" opacity="1.000000" stroke="none" 
	d="
M386.354797,945.626221 
	C398.233215,955.445862 411.146576,963.499207 420.991150,975.197083 
	C394.979706,957.897095 370.133423,939.117615 346.842987,918.266541 
	C361.386230,925.205322 373.247833,936.006226 386.354797,945.626221 
z"/>
<path fill="#000000" opacity="1.000000" stroke="none" 
	d="
M907.751282,963.011169 
	C884.402344,946.333862 861.582825,929.507690 840.926453,909.913757 
	C865.685059,925.454224 888.570862,943.458679 910.968567,962.170288 
	C909.577271,963.910706 908.804016,963.414062 907.751282,963.011169 
z"/>
<path fill="#000000" opacity="1.000000" stroke="none" 
	d="
M235.661743,955.667236 
	C251.935867,940.018555 267.350342,923.945190 285.562927,910.938538 
	C265.151367,933.818420 242.457764,954.304138 219.302338,974.369934 
	C219.824875,969.649597 223.746094,967.514404 226.485474,964.558960 
	C229.296707,961.525940 232.420670,958.782776 235.661743,955.667236 
z"/>
<path fill="#000000" opacity="1.000000" stroke="none" 
	d="
M620.608032,77.425980 
	C610.435059,70.158112 600.526855,63.134106 590.627502,56.097702 
	C587.105469,53.594303 583.636475,51.014732 580.078369,48.564297 
	C578.709351,47.621490 576.657532,46.922684 577.989502,44.883629 
	C579.181885,43.058311 580.919983,44.016022 582.358704,45.019470 
	C588.911987,49.590050 595.523438,54.080116 602.001892,58.754433 
	C614.004578,67.414574 625.940857,76.166992 637.877197,84.918541 
	C640.627502,86.935043 643.388428,88.992302 644.617371,92.558685 
	C635.930359,88.783875 628.580200,82.937981 620.608032,77.425980 
z"/>
<path fill="#000000" opacity="1.000000" stroke="none" 
	d="
M791.014526,52.027981 
	C776.832397,65.588249 763.292786,79.313690 748.639893,91.850464 
	C747.726257,92.632172 746.677185,93.737083 745.099548,93.037865 
	C744.858887,91.015686 746.447693,90.077835 747.560974,88.983627 
	C765.582214,71.270927 783.636780,53.592102 801.698730,35.920887 
	C802.960571,34.686298 804.413025,32.686516 806.216980,34.652580 
	C807.807068,36.385483 806.237488,38.122780 804.910217,39.360531 
	C800.413513,43.554123 795.820679,47.644733 791.014526,52.027981 
z"/>
<path fill="#000000" opacity="1.000000" stroke="none" 
	d="
M190.853333,143.174683 
	C189.562454,143.148621 188.734985,143.113068 187.908447,143.127960 
	C180.431610,143.262589 177.311493,138.897446 179.781540,131.802109 
	C180.343857,130.186829 181.687439,129.646667 183.067169,129.047348 
	C187.635300,127.063087 192.170547,128.195618 196.705811,129.153687 
	C197.761047,129.376602 198.363785,130.140381 198.755539,131.117493 
	C201.064758,136.877396 197.503525,142.664597 190.853333,143.174683 
z"/>
<path fill="#000000" opacity="1.000000" stroke="none" 
	d="
M957.009949,131.009995 
	C957.302063,129.332474 957.977783,127.868797 959.347046,126.756454 
	C972.624939,115.970512 984.084473,103.236984 996.777222,91.825989 
	C998.554016,90.228645 1000.056824,87.411064 1003.241821,89.106895 
	C1003.691772,91.427315 1002.076111,92.436905 1000.926697,93.448006 
	C988.226196,104.619850 976.055176,116.343048 964.132690,128.334991 
	C962.401917,130.075882 960.418823,131.767105 957.271729,131.061356 
	C956.975159,130.965042 956.998108,130.995300 957.009949,131.009995 
z"/>
<path fill="#000000" opacity="1.000000" stroke="none" 
	d="
M469.946289,977.947021 
	C466.892212,980.149536 465.042572,983.376892 461.141541,983.986511 
	C472.427765,969.731873 486.263733,958.001221 499.017548,944.620850 
	C500.617950,947.699585 500.432098,949.774780 498.690125,951.399780 
	C489.239532,960.216003 479.719696,968.958008 469.946289,977.947021 
z"/>
<path fill="#000000" opacity="1.000000" stroke="none" 
	d="
M860.935974,854.935303 
	C871.236389,845.413391 880.212219,834.941528 892.100586,827.700378 
	C880.182251,841.939453 866.348511,854.158081 852.576782,866.441528 
	C852.185974,866.058411 851.795166,865.675354 851.404358,865.292236 
	C854.490295,861.916382 857.576172,858.540588 860.935974,854.935303 
z"/>
<path fill="#000000" opacity="1.000000" stroke="none" 
	d="
M694.691772,1002.339355 
	C693.445374,1002.327637 692.613586,1002.307922 691.783081,1002.332642 
	C688.353149,1002.434937 684.548340,1003.546753 684.711182,997.690552 
	C684.888489,991.315674 686.035278,989.536987 691.947876,989.763489 
	C695.697571,989.907166 699.965576,990.084290 701.706848,994.320984 
	C704.094299,1000.130005 701.713379,1002.854980 694.691772,1002.339355 
M691.673584,994.708374 
	C691.183716,997.195190 692.696533,998.064514 694.737488,998.182922 
	C696.120361,998.263184 697.399780,997.635986 697.753967,996.101990 
	C698.075684,994.709167 697.744202,993.377258 696.418884,992.645935 
	C694.506409,991.590393 692.907043,991.944641 691.673584,994.708374 
z"/>
<path fill="#000000" opacity="1.000000" stroke="none" 
	d="
M204.438141,150.571701 
	C208.767258,154.142609 213.347717,156.930298 216.378159,161.458298 
	C214.874329,163.086533 213.743835,161.852890 212.779388,161.232941 
	C209.010803,158.810471 205.239807,156.373566 201.648438,153.701767 
	C200.018524,152.489182 196.359177,151.552826 198.606277,148.649231 
	C200.905289,145.678528 202.457855,149.153870 204.438141,150.571701 
z"/>
<path fill="#000000" opacity="1.000000" stroke="none" 
	d="
M529.012451,54.974045 
	C530.883423,53.974300 532.486755,52.128635 534.940796,53.418907 
	C536.846069,54.420639 538.336914,55.745522 537.842712,58.093723 
	C537.248169,60.918869 535.364807,62.292728 532.437988,62.191700 
	C529.976501,62.106739 528.838562,60.762341 528.767700,58.397072 
	C528.742859,57.568035 528.798401,56.736591 528.877380,55.481033 
	C528.937561,55.055820 528.988647,55.002331 529.012451,54.974045 
z"/>
<path fill="#000000" opacity="1.000000" stroke="none" 
	d="
M130.428711,945.742798 
	C137.437057,948.347534 142.723755,953.022949 147.112122,958.839111 
	C140.399506,955.946289 134.438461,952.078308 130.428711,945.742798 
z"/>
<path fill="#000000" opacity="1.000000" stroke="none" 
	d="
M544.109375,52.109715 
	C541.487122,51.399742 539.611572,50.392628 540.381836,47.568012 
	C540.980286,45.373405 542.627930,44.189556 544.819519,44.445156 
	C546.691040,44.663422 548.498413,45.883736 548.729675,47.782501 
	C549.071960,50.593727 547.158203,51.888145 544.109375,52.109715 
z"/>
<path fill="#000000" opacity="1.000000" stroke="none" 
	d="
M1009.679565,76.069565 
	C1010.164856,82.477264 1012.024658,84.073692 1020.031799,85.002899 
	C1016.052490,88.753365 1012.561584,86.244789 1009.762512,84.263283 
	C1006.193848,81.736923 1006.450012,77.143234 1009.643555,73.164711 
	C1010.814880,73.981514 1009.937622,74.894051 1009.679565,76.069565 
z"/>
<path fill="#000000" opacity="1.000000" stroke="none" 
	d="
M57.114372,248.099762 
	C60.048599,248.648560 62.644356,248.989151 65.240112,249.329742 
	C61.429382,251.226196 57.225922,252.476318 53.936275,249.492584 
	C51.380745,247.174713 52.869400,243.781235 54.255394,240.457458 
	C55.721096,243.157120 54.550362,246.087753 57.114372,248.099762 
z"/>
<path fill="#000000" opacity="1.000000" stroke="none" 
	d="
M536.012024,922.986694 
	C534.702820,922.952087 533.356079,923.078308 532.059753,922.878357 
	C529.712158,922.516113 527.662354,921.311768 528.243896,918.676575 
	C528.808594,916.117737 530.406677,914.047668 534.244995,914.669800 
	C532.533936,916.702576 528.709412,917.842529 531.406372,920.619019 
	C533.638306,922.916931 534.692932,918.998962 536.561829,918.607605 
	C537.616699,920.063477 536.406311,921.166138 536.052124,922.706116 
	C535.966675,923.026917 535.997253,923.000488 536.012024,922.986694 
z"/>
<path fill="#000000" opacity="1.000000" stroke="none" 
	d="
M540.344543,55.344292 
	C543.938049,57.395603 543.193481,60.808907 538.054199,64.655243 
	C538.811340,61.319649 539.462769,58.449871 540.344543,55.344292 
z"/>
<path fill="#000000" opacity="1.000000" stroke="none" 
	d="
M929.885620,143.744232 
	C931.075989,142.630829 932.051331,141.281509 933.370300,142.789200 
	C934.330933,143.887100 933.518250,144.977203 932.705688,145.824661 
	C931.461609,147.121933 930.186157,148.438049 928.039062,148.252640 
	C927.155457,146.269867 928.918213,145.322220 929.885620,143.744232 
z"/>
<path fill="#000000" opacity="1.000000" stroke="none" 
	d="
M598.151855,4.337115 
	C599.330872,4.027022 600.221741,3.751358 601.125549,3.471712 
	C602.101379,5.698232 600.916748,6.497722 599.357422,6.808970 
	C597.558350,7.168074 595.729126,7.217830 595.232605,4.825202 
	C595.985962,3.455139 596.994934,4.407835 598.151855,4.337115 
z"/>
</svg>